<svg width="314" height="244" viewBox="0 0 314 244" fill="none" xmlns="http://www.w3.org/2000/svg">
<path d="M284.7 242.881V192.385H293.66V242.881H284.7ZM300.764 223.873L313.436 242.881H303.004L294.876 228.993L300.764 223.873ZM290.972 235.137L290.076 226.625L306.972 214.209L312.412 219.009L290.972 235.137Z" fill="#363537"/>
<path d="M269.713 214.913L270.545 222.593L270.353 221.441C271.164 219.777 272.273 218.369 273.681 217.217C275.089 216.022 276.476 215.105 277.841 214.465C279.249 213.825 280.316 213.505 281.041 213.505L280.593 222.465C278.503 222.209 276.711 222.55 275.217 223.489C273.724 224.427 272.572 225.665 271.761 227.201C270.951 228.737 270.545 230.315 270.545 231.937V242.881H261.649V214.913H269.713Z" fill="#363537"/>
<path d="M237.313 243.649C234.71 243.649 232.342 243.137 230.209 242.113C228.118 241.046 226.454 239.425 225.217 237.249C223.98 235.073 223.361 232.299 223.361 228.929C223.361 225.771 224.001 223.041 225.281 220.737C226.561 218.433 228.246 216.662 230.337 215.425C232.428 214.145 234.646 213.505 236.993 213.505C239.766 213.505 241.857 213.974 243.265 214.913C244.716 215.809 245.91 216.811 246.849 217.921L246.465 219.009L247.297 214.913H255.617V242.881H246.657V236.801L247.361 238.721C247.276 238.721 247.02 238.977 246.593 239.489C246.166 239.958 245.526 240.534 244.673 241.217C243.862 241.857 242.838 242.411 241.601 242.881C240.406 243.393 238.977 243.649 237.313 243.649ZM239.873 236.353C240.94 236.353 241.9 236.203 242.753 235.905C243.606 235.563 244.353 235.094 244.993 234.497C245.633 233.857 246.188 233.067 246.657 232.129V225.281C246.316 224.342 245.804 223.553 245.121 222.913C244.438 222.23 243.628 221.718 242.689 221.377C241.75 220.993 240.705 220.801 239.553 220.801C238.273 220.801 237.078 221.142 235.969 221.825C234.902 222.465 234.049 223.361 233.409 224.513C232.769 225.665 232.449 226.987 232.449 228.481C232.449 229.974 232.79 231.318 233.473 232.513C234.156 233.707 235.052 234.646 236.161 235.329C237.313 236.011 238.55 236.353 239.873 236.353Z" fill="#363537"/>
<path d="M203.793 195.777C207.676 195.777 210.961 196.438 213.649 197.761C216.337 199.041 218.385 200.875 219.793 203.265C221.201 205.611 221.905 208.406 221.905 211.649C221.905 213.569 221.607 215.51 221.009 217.473C220.455 219.393 219.537 221.142 218.257 222.721C217.02 224.299 215.335 225.579 213.201 226.561C211.111 227.499 208.529 227.969 205.457 227.969H198.801V242.881H189.521V195.777H203.793ZM205.393 218.945C206.801 218.945 207.975 218.71 208.913 218.241C209.852 217.729 210.577 217.11 211.089 216.385C211.644 215.617 212.028 214.827 212.241 214.017C212.497 213.206 212.625 212.502 212.625 211.905C212.625 211.435 212.54 210.817 212.369 210.049C212.241 209.238 211.943 208.427 211.473 207.617C211.004 206.806 210.279 206.123 209.297 205.569C208.359 205.014 207.079 204.737 205.457 204.737H198.801V218.945H205.393Z" fill="#363537"/>
<path d="M151.073 202.625H160.033V214.785H166.817V221.761H160.033V242.881H151.073V221.761H146.721V214.785H151.073V202.625Z" fill="#ED7D3A"/>
<path d="M133.463 214.913L134.295 222.593L134.103 221.441C134.914 219.777 136.023 218.369 137.431 217.217C138.839 216.022 140.226 215.105 141.591 214.465C142.999 213.825 144.066 213.505 144.791 213.505L144.343 222.465C142.253 222.209 140.461 222.55 138.967 223.489C137.474 224.427 136.322 225.665 135.511 227.201C134.701 228.737 134.295 230.315 134.295 231.937V242.881H125.399V214.913H133.463Z" fill="#ED7D3A"/>
<path d="M101.063 243.649C98.4603 243.649 96.0923 243.137 93.959 242.113C91.8683 241.046 90.2043 239.425 88.967 237.249C87.7296 235.073 87.111 232.299 87.111 228.929C87.111 225.771 87.751 223.041 89.031 220.737C90.311 218.433 91.9963 216.662 94.087 215.425C96.1776 214.145 98.3963 213.505 100.743 213.505C103.516 213.505 105.607 213.974 107.015 214.913C108.466 215.809 109.66 216.811 110.599 217.921L110.215 219.009L111.047 214.913H119.367V242.881H110.407V236.801L111.111 238.721C111.026 238.721 110.77 238.977 110.343 239.489C109.916 239.958 109.276 240.534 108.423 241.217C107.612 241.857 106.588 242.411 105.351 242.881C104.156 243.393 102.727 243.649 101.063 243.649ZM103.623 236.353C104.69 236.353 105.65 236.203 106.503 235.905C107.356 235.563 108.103 235.094 108.743 234.497C109.383 233.857 109.938 233.067 110.407 232.129V225.281C110.066 224.342 109.554 223.553 108.871 222.913C108.188 222.23 107.378 221.718 106.439 221.377C105.5 220.993 104.455 220.801 103.303 220.801C102.023 220.801 100.828 221.142 99.719 221.825C98.6523 222.465 97.799 223.361 97.159 224.513C96.519 225.665 96.199 226.987 96.199 228.481C96.199 229.974 96.5403 231.318 97.223 232.513C97.9056 233.707 98.8016 234.646 99.911 235.329C101.063 236.011 102.3 236.353 103.623 236.353Z" fill="#ED7D3A"/>
<path d="M45.365 214.913L46.069 219.841L45.941 219.457C47.0503 217.579 48.437 216.129 50.101 215.105C51.765 214.038 53.7703 213.505 56.117 213.505C57.653 213.505 58.997 213.718 60.149 214.145C61.3436 214.571 62.3463 215.211 63.157 216.065C63.9676 216.875 64.5223 217.942 64.821 219.265L64.501 219.329C65.6956 217.579 67.125 216.171 68.789 215.105C70.4956 214.038 72.2663 213.505 74.101 213.505C76.8743 213.505 79.0716 214.294 80.693 215.873C82.357 217.409 83.2103 219.414 83.253 221.889V242.881H74.357V225.601C74.3143 224.363 74.1223 223.361 73.781 222.593C73.4396 221.782 72.6503 221.334 71.413 221.249C69.9623 221.249 68.725 221.761 67.701 222.785C66.7196 223.766 65.973 225.046 65.461 226.625C64.9916 228.161 64.757 229.761 64.757 231.425V242.881H55.797V225.601C55.7543 224.363 55.5196 223.361 55.093 222.593C54.709 221.782 53.8983 221.334 52.661 221.249C51.253 221.249 50.0583 221.761 49.077 222.785C48.1383 223.766 47.413 225.025 46.901 226.561C46.4316 228.097 46.197 229.675 46.197 231.297V242.881H37.237V214.913H45.365Z" fill="#ED7D3A"/>
<path d="M29.7485 207.169C27.9565 206.187 26.1218 205.377 24.2445 204.737C22.4098 204.097 20.6818 203.777 19.0605 203.777C17.0552 203.777 15.4765 204.182 14.3245 204.993C13.1725 205.803 12.5965 207.019 12.5965 208.641C12.5965 209.75 13.0232 210.753 13.8765 211.649C14.7725 212.502 15.9032 213.27 17.2685 213.953C18.6765 214.635 20.1272 215.254 21.6205 215.809C22.9858 216.321 24.3298 216.939 25.6525 217.665C27.0178 218.347 28.2338 219.222 29.3005 220.289C30.3672 221.313 31.2205 222.614 31.8605 224.193C32.5005 225.729 32.8205 227.627 32.8205 229.889C32.8205 232.278 32.2018 234.497 30.9645 236.545C29.7272 238.593 27.9138 240.257 25.5245 241.537C23.1352 242.774 20.1912 243.393 16.6925 243.393C14.9005 243.393 13.0658 243.222 11.1885 242.881C9.35382 242.497 7.54048 241.942 5.74848 241.217C3.95648 240.449 2.22848 239.489 0.564484 238.337L4.66048 231.105C5.76982 231.915 6.96448 232.641 8.24448 233.281C9.56715 233.878 10.8898 234.347 12.2125 234.689C13.5352 235.03 14.7512 235.201 15.8605 235.201C16.9698 235.201 18.0792 235.051 19.1885 234.753C20.3405 234.411 21.2792 233.857 22.0045 233.089C22.7725 232.321 23.1565 231.254 23.1565 229.889C23.1565 228.95 22.8365 228.097 22.1965 227.329C21.5992 226.561 20.7672 225.857 19.7005 225.217C18.6765 224.577 17.5458 224.022 16.3085 223.553C14.8578 222.998 13.3645 222.358 11.8285 221.633C10.2925 220.907 8.84182 220.033 7.47648 219.009C6.15382 217.942 5.06582 216.641 4.21248 215.105C3.40182 213.526 2.99648 211.606 2.99648 209.345C2.99648 206.614 3.59382 204.246 4.78848 202.241C6.02582 200.235 7.75382 198.657 9.97248 197.505C12.1912 196.31 14.7512 195.649 17.6525 195.521C21.4498 195.521 24.5218 195.969 26.8685 196.865C29.2578 197.761 31.3912 198.827 33.2685 200.065L29.7485 207.169Z" fill="#ED7D3A"/>
<path fill-rule="evenodd" clip-rule="evenodd" d="M152.67 2.85126C154.594 -0.482109 159.406 -0.482048 161.33 2.85126L192.597 57.0076L160.922 63.3425C158.333 63.8604 155.667 63.8604 153.078 63.3425L121.403 57.0076L152.67 2.85126ZM113.345 70.9644L100.488 93.2336L153.078 103.752C155.667 104.269 158.333 104.269 160.922 103.752L213.512 93.2336L200.655 70.9644L160.922 78.911C158.333 79.4289 155.667 79.4289 153.078 78.911L113.345 70.9644ZM160.922 126.241L225.152 113.395L238.187 135.971C239.768 138.709 238.442 142.209 235.444 143.213L163.348 167.342C159.228 168.721 154.772 168.721 150.652 167.342L78.5564 143.213C75.558 142.209 74.2322 138.709 75.8132 135.971L88.8476 113.395L153.078 126.241C155.667 126.759 158.333 126.759 160.922 126.241Z" fill="#ED7D3A"/>
<path fill-rule="evenodd" clip-rule="evenodd" d="M157 104.14V79.2994C158.314 79.2994 159.628 79.17 160.922 78.911L200.655 70.9644L213.512 93.2336L160.922 103.752C159.628 104.01 158.314 104.14 157 104.14ZM157 168.376V126.629C158.314 126.629 159.628 126.5 160.922 126.241L225.152 113.395L238.187 135.971C239.768 138.709 238.442 142.209 235.444 143.213L163.348 167.342C161.288 168.031 159.144 168.376 157 168.376ZM157.009 0.351257C158.69 0.354187 160.37 1.1875 161.33 2.85126L192.597 57.0076L160.922 63.3425C159.628 63.6015 158.314 63.731 157 63.731V0.351257" fill="#363537"/>
</svg>
