<svg width="314" height="52" viewBox="0 0 314 52" fill="none" xmlns="http://www.w3.org/2000/svg">
<path d="M284.75 50.654V0.15802H293.71V50.654H284.75ZM300.814 31.646L313.486 50.654H303.054L294.926 36.766L300.814 31.646ZM291.022 42.91L290.126 34.398L307.022 21.982L312.462 26.782L291.022 42.91Z" fill="#363537"/>
<path d="M269.764 22.686L270.596 30.366L270.404 29.214C271.215 27.55 272.324 26.142 273.732 24.99C275.14 23.7953 276.527 22.878 277.892 22.238C279.3 21.598 280.367 21.278 281.092 21.278L280.644 30.238C278.553 29.982 276.761 30.3233 275.268 31.262C273.775 32.2007 272.623 33.438 271.812 34.974C271.001 36.51 270.596 38.0887 270.596 39.71V50.654H261.7V22.686H269.764Z" fill="#363537"/>
<path d="M237.364 51.422C234.761 51.422 232.393 50.91 230.26 49.886C228.169 48.8193 226.505 47.198 225.268 45.022C224.03 42.846 223.412 40.0727 223.412 36.702C223.412 33.5447 224.052 30.814 225.332 28.51C226.612 26.206 228.297 24.4353 230.388 23.198C232.478 21.918 234.697 21.278 237.044 21.278C239.817 21.278 241.908 21.7473 243.316 22.686C244.766 23.582 245.961 24.5847 246.9 25.694L246.516 26.782L247.348 22.686H255.668V50.654H246.708V44.574L247.412 46.494C247.326 46.494 247.07 46.75 246.644 47.262C246.217 47.7314 245.577 48.3073 244.724 48.99C243.913 49.63 242.889 50.1847 241.652 50.654C240.457 51.166 239.028 51.422 237.364 51.422ZM239.924 44.126C240.99 44.126 241.95 43.9767 242.804 43.678C243.657 43.3367 244.404 42.8673 245.044 42.27C245.684 41.63 246.238 40.8407 246.708 39.902V33.054C246.366 32.1153 245.854 31.326 245.172 30.686C244.489 30.0033 243.678 29.4913 242.74 29.15C241.801 28.766 240.756 28.574 239.604 28.574C238.324 28.574 237.129 28.9153 236.02 29.598C234.953 30.238 234.1 31.134 233.46 32.286C232.82 33.438 232.5 34.7607 232.5 36.254C232.5 37.7473 232.841 39.0913 233.524 40.286C234.206 41.4807 235.102 42.4193 236.212 43.102C237.364 43.7847 238.601 44.126 239.924 44.126Z" fill="#363537"/>
<path d="M203.844 3.54999C207.727 3.54999 211.012 4.21132 213.7 5.53399C216.388 6.81399 218.436 8.64866 219.844 11.038C221.252 13.3847 221.956 16.1793 221.956 19.422C221.956 21.342 221.657 23.2833 221.06 25.246C220.505 27.166 219.588 28.9153 218.308 30.494C217.071 32.0727 215.385 33.3527 213.252 34.334C211.161 35.2727 208.58 35.742 205.508 35.742H198.852V50.654H189.572V3.54999H203.844ZM205.444 26.718C206.852 26.718 208.025 26.4833 208.964 26.014C209.903 25.502 210.628 24.8833 211.14 24.158C211.695 23.39 212.079 22.6007 212.292 21.79C212.548 20.9793 212.676 20.2753 212.676 19.678C212.676 19.2087 212.591 18.59 212.42 17.822C212.292 17.0113 211.993 16.2007 211.524 15.39C211.055 14.5793 210.329 13.8967 209.348 13.342C208.409 12.7873 207.129 12.51 205.508 12.51H198.852V26.718H205.444Z" fill="#363537"/>
<path d="M151.124 10.398H160.084V22.558H166.868V29.534H160.084V50.654H151.124V29.534H146.772V22.558H151.124V10.398Z" fill="#ED7D3A"/>
<path d="M133.514 22.686L134.346 30.366L134.154 29.214C134.965 27.55 136.074 26.142 137.482 24.99C138.89 23.7953 140.277 22.878 141.642 22.238C143.05 21.598 144.117 21.278 144.842 21.278L144.394 30.238C142.303 29.982 140.511 30.3233 139.018 31.262C137.525 32.2007 136.373 33.438 135.562 34.974C134.751 36.51 134.346 38.0887 134.346 39.71V50.654H125.45V22.686H133.514Z" fill="#ED7D3A"/>
<path d="M101.114 51.422C98.5109 51.422 96.1429 50.91 94.0095 49.886C91.9189 48.8193 90.2549 47.198 89.0175 45.022C87.7802 42.846 87.1615 40.0727 87.1615 36.702C87.1615 33.5447 87.8015 30.814 89.0815 28.51C90.3615 26.206 92.0469 24.4353 94.1375 23.198C96.2282 21.918 98.4469 21.278 100.794 21.278C103.567 21.278 105.658 21.7473 107.066 22.686C108.516 23.582 109.711 24.5847 110.65 25.694L110.266 26.782L111.098 22.686H119.418V50.654H110.458V44.574L111.162 46.494C111.076 46.494 110.82 46.75 110.394 47.262C109.967 47.7314 109.327 48.3073 108.474 48.99C107.663 49.63 106.639 50.1847 105.402 50.654C104.207 51.166 102.778 51.422 101.114 51.422ZM103.674 44.126C104.74 44.126 105.7 43.9767 106.554 43.678C107.407 43.3367 108.154 42.8673 108.794 42.27C109.434 41.63 109.988 40.8407 110.458 39.902V33.054C110.116 32.1153 109.604 31.326 108.922 30.686C108.239 30.0033 107.428 29.4913 106.49 29.15C105.551 28.766 104.506 28.574 103.354 28.574C102.074 28.574 100.879 28.9153 99.7695 29.598C98.7029 30.238 97.8495 31.134 97.2095 32.286C96.5695 33.438 96.2495 34.7607 96.2495 36.254C96.2495 37.7473 96.5909 39.0913 97.2735 40.286C97.9562 41.4807 98.8522 42.4193 99.9615 43.102C101.114 43.7847 102.351 44.126 103.674 44.126Z" fill="#ED7D3A"/>
<path d="M45.4155 22.686L46.1195 27.614L45.9915 27.23C47.1009 25.3527 48.4875 23.902 50.1515 22.878C51.8155 21.8113 53.8209 21.278 56.1675 21.278C57.7035 21.278 59.0475 21.4913 60.1995 21.918C61.3942 22.3447 62.3969 22.9847 63.2075 23.838C64.0182 24.6487 64.5729 25.7153 64.8715 27.038L64.5515 27.102C65.7462 25.3527 67.1755 23.9447 68.8395 22.878C70.5462 21.8113 72.3169 21.278 74.1515 21.278C76.9249 21.278 79.1222 22.0673 80.7435 23.646C82.4075 25.182 83.2609 27.1873 83.3035 29.662V50.654H74.4075V33.374C74.3649 32.1367 74.1729 31.134 73.8315 30.366C73.4902 29.5553 72.7009 29.1073 71.4635 29.022C70.0129 29.022 68.7755 29.534 67.7515 30.558C66.7702 31.5393 66.0235 32.8193 65.5115 34.398C65.0422 35.934 64.8075 37.534 64.8075 39.198V50.654H55.8475V33.374C55.8049 32.1367 55.5702 31.134 55.1435 30.366C54.7595 29.5553 53.9489 29.1073 52.7115 29.022C51.3035 29.022 50.1089 29.534 49.1275 30.558C48.1889 31.5393 47.4635 32.798 46.9515 34.334C46.4822 35.87 46.2475 37.4487 46.2475 39.07V50.654H37.2875V22.686H45.4155Z" fill="#ED7D3A"/>
<path d="M29.7991 14.942C28.0071 13.9607 26.1724 13.15 24.2951 12.51C22.4604 11.87 20.7324 11.55 19.1111 11.55C17.1057 11.55 15.5271 11.9553 14.3751 12.766C13.2231 13.5767 12.6471 14.7927 12.6471 16.414C12.6471 17.5233 13.0737 18.526 13.9271 19.422C14.8231 20.2753 15.9537 21.0433 17.3191 21.726C18.7271 22.4087 20.1777 23.0273 21.6711 23.582C23.0364 24.094 24.3804 24.7127 25.7031 25.438C27.0684 26.1207 28.2844 26.9953 29.3511 28.062C30.4177 29.086 31.2711 30.3873 31.9111 31.966C32.5511 33.502 32.8711 35.4007 32.8711 37.662C32.8711 40.0513 32.2524 42.27 31.0151 44.318C29.7777 46.366 27.9644 48.03 25.5751 49.31C23.1857 50.5473 20.2417 51.166 16.7431 51.166C14.9511 51.166 13.1164 50.9953 11.2391 50.654C9.40438 50.27 7.59105 49.7153 5.79905 48.99C4.00705 48.222 2.27905 47.262 0.615051 46.11L4.71105 38.878C5.82038 39.6887 7.01505 40.414 8.29505 41.054C9.61772 41.6513 10.9404 42.1207 12.2631 42.462C13.5857 42.8033 14.8017 42.974 15.9111 42.974C17.0204 42.974 18.1297 42.8247 19.2391 42.526C20.3911 42.1847 21.3297 41.63 22.0551 40.862C22.8231 40.094 23.2071 39.0273 23.2071 37.662C23.2071 36.7233 22.8871 35.87 22.2471 35.102C21.6497 34.334 20.8177 33.63 19.7511 32.99C18.7271 32.35 17.5964 31.7953 16.3591 31.326C14.9084 30.7713 13.4151 30.1313 11.8791 29.406C10.3431 28.6807 8.89238 27.806 7.52705 26.782C6.20438 25.7153 5.11638 24.414 4.26305 22.878C3.45238 21.2993 3.04705 19.3793 3.04705 17.118C3.04705 14.3873 3.64438 12.0193 4.83905 10.014C6.07638 8.00867 7.80438 6.43 10.0231 5.278C12.2417 4.08334 14.8017 3.422 17.7031 3.29401C21.5004 3.29401 24.5724 3.74201 26.9191 4.638C29.3084 5.53401 31.4417 6.60067 33.3191 7.83801L29.7991 14.942Z" fill="#ED7D3A"/>
</svg>
