<svg width="164" height="169" viewBox="0 0 164 169" fill="none" xmlns="http://www.w3.org/2000/svg">
<path fill-rule="evenodd" clip-rule="evenodd" d="M77.6208 3.20249C79.5453 -0.130882 84.3566 -0.130821 86.2811 3.20249L117.548 57.3588L85.8733 63.6938C83.2841 64.2116 80.6179 64.2116 78.0286 63.6938L46.3536 57.3588L77.6208 3.20249ZM38.2956 71.3157L25.4385 93.5848L78.0286 104.103C80.6179 104.621 83.284 104.621 85.8732 104.103L138.463 93.5848L125.606 71.3157L85.8733 79.2622C83.2841 79.7801 80.6179 79.7801 78.0286 79.2622L38.2956 71.3157ZM85.8733 126.592L150.103 113.746L163.138 136.322C164.719 139.061 163.393 142.56 160.395 143.564L88.2986 167.693C84.1791 169.072 79.7228 169.072 75.6033 167.693L3.50729 143.564C0.508909 142.56 -0.816866 139.061 0.764067 136.322L13.7985 113.746L78.0286 126.592C80.6179 127.11 83.284 127.11 85.8733 126.592Z" fill="#ED7D3A"/>
<path fill-rule="evenodd" clip-rule="evenodd" d="M81.9509 104.491L81.9509 79.6507C83.2648 79.6507 84.5787 79.5212 85.8733 79.2622L125.606 71.3157L138.463 93.5848L85.8732 104.103C84.5786 104.362 83.2648 104.491 81.9509 104.491ZM81.9509 168.727C84.0949 168.727 86.2389 168.383 88.2986 167.693L160.395 143.564C163.393 142.56 164.719 139.061 163.138 136.322L150.103 113.746L85.8733 126.592C84.5786 126.851 83.2648 126.98 81.9509 126.98L81.9509 168.727ZM81.9509 0.702484C83.6349 0.702492 85.3188 1.53584 86.2811 3.20249L117.548 57.3588L85.8733 63.6938C84.5787 63.9527 83.2648 64.0822 81.9509 64.0822L81.9509 0.702484Z" fill="#363537"/>
</svg>
